<svg xmlns="http://www.w3.org/2000/svg" viewBox="0 0 32 32" fill="none">
  <rect width="32" height="32" rx="8" fill="#4F46E5"/>
  <path d="M16 8C11.5817 8 8 11.5817 8 16C8 20.4183 11.5817 24 16 24C20.4183 24 24 20.4183 24 16C24 11.5817 20.4183 8 16 8ZM16 22C12.6863 22 10 19.3137 10 16C10 12.6863 12.6863 10 16 10C19.3137 10 22 12.6863 22 16C22 19.3137 19.3137 22 16 22Z" fill="white"/>
  <path d="M16 12C15.4477 12 15 12.4477 15 13V15H13C12.4477 15 12 15.4477 12 16C12 16.5523 12.4477 17 13 17H15V19C15 19.5523 15.4477 20 16 20C16.5523 20 17 19.5523 17 19V17H19C19.5523 17 20 16.5523 20 16C20 15.4477 19.5523 15 19 15H17V13C17 12.4477 16.5523 12 16 12Z" fill="white"/>
</svg>